<svg width="24" height="24" viewBox="0 0 24 24" fill="none" xmlns="http://www.w3.org/2000/svg">
<path d="M15.3302 6.55317C14.272 6.19098 13.1498 6 12.0048 6C8.87909 6 5.92346 7.42335 3.9746 9.86715C3.46535 10.5057 3.03932 11.1958 2.7002 11.9213C3.03926 12.6466 3.46523 13.3365 3.97436 13.9749C4.56173 14.7115 5.24054 15.3553 5.98793 15.8954L8.35079 13.5326C8.24897 13.3018 8.16845 13.0599 8.11132 12.8097C7.8409 11.6248 8.12473 10.3813 8.88244 9.43116C9.64018 8.48097 10.7894 7.92756 12.0047 7.92756C12.5667 7.92756 13.1146 8.04591 13.6162 8.26716L15.3302 6.55317Z" fill="#A0ABB5"/>
<path d="M12.4209 9.46073C12.2845 9.43763 12.1453 9.42578 12.0047 9.42578C11.2459 9.42578 10.5284 9.77132 10.0553 10.3646C9.61161 10.9209 9.42816 11.6383 9.54621 12.3354L12.4209 9.46073Z" fill="#A0ABB5"/>
<path d="M11.7266 14.4002L14.4822 11.6445C14.5131 11.9195 14.4983 12.2009 14.4352 12.4771C14.2664 13.2169 13.7698 13.8396 13.0862 14.1688C12.6587 14.3747 12.1871 14.4518 11.7266 14.4002Z" fill="#A0ABB5"/>
<path d="M10.5041 15.6203C11.5443 16.0422 12.7189 16.0079 13.7373 15.5174C14.8323 14.9901 15.6276 13.9929 15.898 12.8081C16.082 12.0019 16.0094 11.1685 15.7055 10.4189L18.1126 8.01172C18.8241 8.53789 19.4716 9.15907 20.035 9.86554C20.5441 10.504 20.97 11.1939 21.3091 11.9192C20.97 12.6446 20.544 13.3347 20.0347 13.9733C18.0859 16.4171 15.1302 17.8405 12.0045 17.8405C10.9021 17.8405 9.82078 17.6634 8.79736 17.327L10.5041 15.6203Z" fill="#A0ABB5"/>
<path fill-rule="evenodd" clip-rule="evenodd" d="M20.9347 4.27045C21.2276 4.56334 21.2276 5.03824 20.9347 5.33113L6.53474 19.7311C6.24182 20.024 5.76695 20.024 5.47406 19.7311C5.18117 19.4382 5.18117 18.9633 5.47406 18.6705L19.8741 4.27045C20.167 3.97756 20.6418 3.97756 20.9347 4.27045Z" fill="#A0ABB5"/>
</svg>
