<svg width="40" height="40" viewBox="0 0 40 40" fill="none" xmlns="http://www.w3.org/2000/svg">
<rect x="3.33264" y="3.33203" width="33.3333" height="33.3333" rx="6" fill="#58646A"/>
<path d="M11.4861 7.68171C10.63 8.01463 9.90602 8.45854 9.18203 9.18252C8.45805 9.90122 8.01415 10.6305 7.68122 11.4813C7.35886 12.3057 7.14219 13.2516 7.07878 14.6362C7.01537 16.0207 6.99951 16.4646 6.99951 19.9947C6.99951 23.5248 7.01537 23.9687 7.07878 25.3533C7.14219 26.7378 7.36415 27.6837 7.68122 28.5081C8.01415 29.3642 8.45805 30.0882 9.18203 30.8122C9.90602 31.5362 10.63 31.9801 11.4861 32.313C12.3105 32.6354 13.2564 32.852 14.641 32.9155C16.0255 32.9789 16.4694 32.9947 19.9995 32.9947C23.5296 32.9947 23.9735 32.9789 25.358 32.9155C26.7426 32.852 27.6885 32.6301 28.5129 32.313C29.369 31.9801 30.093 31.5362 30.817 30.8122C31.541 30.0882 31.9849 29.3642 32.3178 28.5081C32.6402 27.6837 32.8568 26.7378 32.9202 25.3533C32.9837 23.9687 32.9995 23.5248 32.9995 19.9947C32.9995 16.4646 32.9837 16.0207 32.9202 14.6362C32.8568 13.2516 32.6349 12.3057 32.3178 11.4813C31.9849 10.6305 31.541 9.90122 30.8223 9.18252C30.0983 8.45854 29.3743 8.01463 28.5182 7.68171C27.6938 7.35935 26.7479 7.14268 25.3633 7.07927C23.9788 7.01585 23.5349 7 20.0048 7C16.4747 7 16.0308 7.01585 14.6463 7.07927C13.2564 7.1374 12.3105 7.35935 11.4861 7.68171ZM25.2524 9.41504C26.5207 9.47317 27.2076 9.68455 27.6674 9.86423C28.2751 10.102 28.7085 10.3821 29.1629 10.8366C29.6174 11.2911 29.8975 11.7244 30.1353 12.3321C30.315 12.7919 30.5263 13.4789 30.5845 14.7472C30.6479 16.1159 30.6585 16.528 30.6585 20C30.6585 23.472 30.6426 23.8841 30.5845 25.2528C30.5263 26.5211 30.315 27.2081 30.1353 27.6679C29.8975 28.2756 29.6174 28.7089 29.1629 29.1634C28.7085 29.6179 28.2751 29.898 27.6674 30.1358C27.2076 30.3155 26.5207 30.5268 25.2524 30.585C23.8837 30.6484 23.4715 30.6589 19.9995 30.6589C16.5276 30.6589 16.1154 30.6431 14.7467 30.585C13.4784 30.5268 12.7914 30.3155 12.3316 30.1358C11.7239 29.898 11.2906 29.6179 10.8361 29.1634C10.3816 28.7089 10.1015 28.2756 9.86374 27.6679C9.68406 27.2081 9.47268 26.5211 9.41455 25.2528C9.35114 23.8841 9.34057 23.472 9.34057 20C9.34057 16.528 9.35642 16.1159 9.41455 14.7472C9.47268 13.4789 9.68406 12.7919 9.86374 12.3321C10.1015 11.7244 10.3816 11.2911 10.8361 10.8366C11.2906 10.3821 11.7239 10.102 12.3316 9.86423C12.7914 9.68455 13.4784 9.47317 14.7467 9.41504C16.1154 9.35163 16.5276 9.34106 19.9995 9.34106C23.4715 9.34106 23.8837 9.35163 25.2524 9.41504Z" fill="white"/>
<path d="M13.3246 19.9986C13.3246 23.6872 16.3157 26.673 19.999 26.673C23.6824 26.673 26.6734 23.6819 26.6734 19.9986C26.6734 16.3153 23.6877 13.3242 19.999 13.3242C16.3104 13.3242 13.3246 16.31 13.3246 19.9986ZM24.3324 19.9986C24.3324 22.3925 22.3929 24.3319 19.999 24.3319C17.6051 24.3319 15.6657 22.3925 15.6657 19.9986C15.6657 17.6047 17.6051 15.6653 19.999 15.6653C22.3929 15.6653 24.3324 17.6047 24.3324 19.9986Z" fill="white"/>
<path d="M26.9444 14.6179C27.8054 14.6179 28.5034 13.9199 28.5034 13.0589C28.5034 12.198 27.8054 11.5 26.9444 11.5C26.0835 11.5 25.3855 12.198 25.3855 13.0589C25.3855 13.9199 26.0835 14.6179 26.9444 14.6179Z" fill="white"/>
</svg>
