<svg width="40" height="41" viewBox="0 0 40 41" fill="none" xmlns="http://www.w3.org/2000/svg">
<path d="M19.6645 36.33C28.8683 36.33 36.3295 28.8688 36.3295 19.665C36.3295 10.4612 28.8683 3 19.6645 3C10.4607 3 2.99951 10.4612 2.99951 19.665C2.99951 28.8688 10.4607 36.33 19.6645 36.33Z" fill="#58646A"/>
<path d="M29.6216 21.0063V27.8769H25.6382V21.4668C25.6382 19.8572 25.0631 18.7581 23.6208 18.7581C22.5202 18.7581 21.8663 19.4981 21.5776 20.2146C21.4727 20.4707 21.4457 20.8263 21.4457 21.1854V27.8766H17.462C17.462 27.8766 17.5155 17.0199 17.462 15.8961H21.446V17.5939C21.438 17.6072 21.4267 17.6203 21.4195 17.6331H21.446V17.5939C21.9754 16.7793 22.9194 15.6148 25.0361 15.6148C27.6568 15.6148 29.6216 17.3271 29.6216 21.0063ZM13.2947 10.1211C11.932 10.1211 11.0405 11.0156 11.0405 12.1908C11.0405 13.341 11.9062 14.2613 13.2424 14.2613H13.2683C14.6576 14.2613 15.5215 13.341 15.5215 12.1908C15.4951 11.0156 14.6576 10.1211 13.2947 10.1211ZM11.2773 27.8769H15.2595V15.8961H11.2773V27.8769Z" fill="white"/>
</svg>
