<svg width="103" height="104" viewBox="0 0 103 104" fill="none" xmlns="http://www.w3.org/2000/svg">
<path fill-rule="evenodd" clip-rule="evenodd" d="M20.1432 24.2331H21.5882C23.1882 24.2331 23.9902 23.5231 23.9902 22.1021C23.9902 20.6811 23.1882 19.9721 21.5882 19.9721H20.1432V24.2331ZM20.1432 33.4841H15.7832V16.3901H22.7222C24.6052 16.3901 26.0472 16.8881 27.0472 17.8841C28.0472 18.8821 28.5482 20.2901 28.5482 22.1021C28.5482 23.9151 28.0482 25.3221 27.0472 26.3191C26.0472 27.3171 24.6052 27.8151 22.7222 27.8151H20.1432V33.4851V33.4841ZM47.2742 24.0291H48.0972C48.9572 24.0291 49.6172 23.8481 50.0762 23.4851C50.5362 23.1231 50.7652 22.6001 50.7652 21.9221C50.7652 21.2411 50.5352 20.7191 50.0762 20.3571C49.6162 19.9941 48.9562 19.8121 48.0962 19.8121H47.2742V24.0301V24.0291ZM56.8582 33.4841H51.4312L47.2742 26.9091V33.4841H42.9162V16.3891H49.6972C50.6332 16.3891 51.4472 16.5291 52.1442 16.8081C52.8402 17.0881 53.4142 17.4701 53.8672 17.9541C54.3191 18.437 54.6672 19.0074 54.8902 19.6301C55.1202 20.2661 55.2342 20.9461 55.2342 21.6721C55.2342 22.9721 54.9272 24.0251 54.3132 24.8341C53.6962 25.6441 52.7892 26.1911 51.5872 26.4791L56.8582 33.4841ZM73.0152 24.9361C73.0152 25.6161 73.1402 26.2441 73.3942 26.8181C73.6352 27.378 73.9819 27.8863 74.4152 28.3151C74.8452 28.7381 75.3462 29.0671 75.9172 29.3011C76.4872 29.5351 77.0922 29.6511 77.7292 29.6511C78.9694 29.6571 80.1626 29.1772 81.0532 28.3141C81.4925 27.8877 81.8441 27.3794 82.0882 26.8181C82.3382 26.2441 82.4662 25.6161 82.4662 24.9361C82.4722 24.2893 82.3434 23.6484 82.0882 23.0541C81.5966 21.9254 80.6822 21.0343 79.5412 20.5721C78.9661 20.3375 78.3503 20.2186 77.7292 20.2221C77.0922 20.2221 76.4882 20.3381 75.9172 20.5721C75.3569 20.7993 74.8466 21.1343 74.4152 21.5581C73.9852 21.9811 73.6452 22.4811 73.3942 23.0541C73.1373 23.6479 73.0082 24.2891 73.0152 24.9361ZM68.4572 24.9361C68.4572 23.6661 68.6872 22.4841 69.1462 21.3881C69.5899 20.3162 70.2395 19.3419 71.0582 18.5201C71.8936 17.6907 72.8882 17.0389 73.9822 16.6041C75.1172 16.1441 76.3652 15.9141 77.7292 15.9141C79.0782 15.9141 80.3232 16.1441 81.4652 16.6041C82.5658 17.0387 83.5676 17.6903 84.4112 18.5201C85.2359 19.3394 85.8898 20.3142 86.3352 21.3881C86.7952 22.4841 87.0242 23.6661 87.0242 24.9361C87.0242 26.2061 86.7942 27.3901 86.3342 28.4861C85.8891 29.5592 85.2355 30.5333 84.4112 31.3521C83.5684 32.1828 82.5663 32.8345 81.4652 33.2681C80.3232 33.7281 79.0782 33.9581 77.7292 33.9581C76.3652 33.9581 75.1172 33.7281 73.9822 33.2681C72.8877 32.8343 71.8928 32.1824 71.0582 31.3521C70.2394 30.5307 69.5898 29.5566 69.1462 28.4851C68.6862 27.3901 68.4562 26.2061 68.4562 24.9351" fill="#374146"/>
<path fill-rule="evenodd" clip-rule="evenodd" d="M52.0668 81.4964V87.8974H47.7088V81.4964H42.3828V77.1094H57.3928V81.4964H52.0668Z" fill="#EA5A0A"/>
<path fill-rule="evenodd" clip-rule="evenodd" d="M47.7084 75.2471H52.0664V70.8041H47.7084V75.2471ZM28.5814 49.3101C27.5734 48.0551 26.3284 47.4281 24.8454 47.4281C24.2412 47.4222 23.6421 47.5386 23.0841 47.7703C22.5261 48.0019 22.0207 48.3441 21.5984 48.7761C21.1984 49.1921 20.8844 49.6891 20.6554 50.2621C20.422 50.8535 20.3045 51.4843 20.3094 52.1201C20.3094 52.8011 20.4254 53.4281 20.6554 54.0031C20.8854 54.5781 21.2034 55.0761 21.6114 55.4991C22.0194 55.9221 22.4964 56.2571 23.0444 56.4971C23.6054 56.7413 24.2115 56.865 24.8234 56.8601C26.2164 56.8601 27.4694 56.2571 28.5814 55.0461V60.3061L28.1374 60.4641C27.5291 60.6885 26.9046 60.8663 26.2694 60.9961C25.7052 61.1081 25.1315 61.165 24.5564 61.1661C23.4147 61.1692 22.2842 60.942 21.2324 60.4981C20.1842 60.0606 19.2322 59.4215 18.4304 58.6171C17.6081 57.7868 16.9484 56.81 16.4854 55.7371C15.9964 54.6271 15.7514 53.4141 15.7514 52.0991C15.7514 50.7831 15.9914 49.5791 16.4734 48.4831C16.9304 47.4229 17.5874 46.4608 18.4084 45.6491C20.0557 44.0313 22.2715 43.1237 24.5804 43.1211C25.2464 43.1211 25.9024 43.1921 26.5474 43.3361C27.1914 43.4801 27.8704 43.7031 28.5814 44.0061V49.3101ZM46.7404 50.1941H53.0334V43.5971H57.3914V60.6901H53.0334V53.6411H46.7414V60.6911H42.3834V43.5961H46.7414L46.7404 50.1941ZM79.6974 54.3431L77.7404 48.6511L75.7834 54.3431H79.6974ZM80.8544 57.7211H74.6264L73.6274 60.6911H68.9804L75.3614 43.5961H80.1214L86.5014 60.6911H81.8544L80.8544 57.7211ZM19.5544 78.4441H20.3764C21.2354 78.4441 21.8964 78.2621 22.3564 77.8991C22.8154 77.5351 23.0444 77.0151 23.0444 76.3351C23.0444 75.6551 22.8144 75.1331 22.3564 74.7711C21.8964 74.4081 21.2354 74.2261 20.3764 74.2261H19.5544V78.4441ZM29.1374 87.8981H23.7104L19.5534 81.3231V87.8981H15.1934V70.8031H21.9764C22.9104 70.8031 23.7264 70.9431 24.4234 71.2221C25.1194 71.5021 25.6934 71.8841 26.1444 72.3671C26.5968 72.8507 26.9456 73.4217 27.1694 74.0451C27.4016 74.7003 27.518 75.391 27.5134 76.0861C27.5134 77.3861 27.2054 78.4391 26.5904 79.2481C25.9754 80.0581 25.0674 80.6051 23.8664 80.8931L29.1364 87.8981H29.1374ZM75.5504 79.6901L69.4344 70.8031H74.6384L77.7524 75.4731L80.8424 70.8031H86.0464L79.9084 79.6911V87.8981H75.5504V79.6901Z" fill="white"/>
</svg>
