<svg width="40" height="40" viewBox="0 0 40 40" fill="none" xmlns="http://www.w3.org/2000/svg">
<path d="M2.99952 18.9984C2.99952 11.4558 2.99952 7.6862 5.33261 5.3331C7.66571 2.98001 11.4453 3.00001 18.9979 3.00001H20.3311C27.8738 3.00001 31.6434 3.00001 33.9964 5.3331C36.3494 7.6662 36.3295 11.4458 36.3295 18.9984V20.3316C36.3295 27.8742 36.3295 31.6439 33.9964 33.9969C31.6633 36.3499 27.8836 36.33 20.3311 36.33H18.9979C11.4553 36.33 7.68571 36.33 5.33261 33.9969C2.97952 31.6638 2.99952 27.8841 2.99952 20.3316V18.9984Z" fill="#58646A"/>
<path d="M19.6968 19.9917C22.477 19.9917 24.7435 17.7252 24.7435 14.9451C24.7435 12.1649 22.477 9.89844 19.6968 9.89844C16.8865 9.89844 14.62 12.1649 14.62 14.9451C14.62 17.7252 16.8865 19.9917 19.6968 19.9917ZM19.6968 12.8599C20.8452 12.8599 21.782 13.7967 21.782 14.9451C21.782 16.0934 20.8452 17.0302 19.6968 17.0302C18.5485 17.0302 17.6117 16.0934 17.6117 14.9451C17.5815 13.7967 18.5183 12.8599 19.6968 12.8599Z" fill="white"/>
<path d="M21.7215 24.1323C22.749 23.8905 23.7462 23.4977 24.6529 22.9235C25.3478 22.5004 25.5593 21.5637 25.1061 20.8686C24.6831 20.1736 23.7462 19.962 23.0512 20.4153C20.9963 21.7148 18.3068 21.7148 16.2518 20.4153C15.5568 19.9922 14.6502 20.1736 14.1969 20.8686C13.8041 21.5637 14.0156 22.4702 14.7106 22.8933C15.6172 23.4675 16.6145 23.8603 17.6419 24.1022L14.8315 26.9126C14.2574 27.4867 14.2574 28.4235 14.8315 28.9977C15.1337 29.2997 15.4964 29.4207 15.8892 29.4207C16.2821 29.4207 16.6447 29.2696 16.9469 28.9977L19.7271 26.2175L22.5072 28.9977C23.0814 29.5718 24.0182 29.5718 24.5923 28.9977C25.1665 28.4235 25.1665 27.4867 24.5923 26.9126L21.7215 24.1323Z" fill="white"/>
<path d="M19.6968 19.9917C22.477 19.9917 24.7435 17.7252 24.7435 14.9451C24.7435 12.1649 22.477 9.89844 19.6968 9.89844C16.8864 9.89844 14.62 12.1649 14.62 14.9451C14.62 17.7252 16.8864 19.9917 19.6968 19.9917ZM19.6968 12.8599C20.8452 12.8599 21.782 13.7967 21.782 14.9451C21.782 16.0934 20.8452 17.0302 19.6968 17.0302C18.5485 17.0302 17.6117 16.0934 17.6117 14.9451C17.5815 13.7967 18.5183 12.8599 19.6968 12.8599Z" fill="white"/>
<path d="M21.7215 24.1323C22.749 23.8905 23.7462 23.4977 24.6527 22.9235C25.3478 22.5004 25.5593 21.5637 25.1061 20.8686C24.6831 20.1736 23.7462 19.962 23.0512 20.4153C20.9963 21.7148 18.3067 21.7148 16.2518 20.4153C15.5568 19.9922 14.6502 20.1736 14.1969 20.8686C13.8041 21.5637 14.0156 22.4702 14.7106 22.8933C15.6172 23.4675 16.6145 23.8603 17.6419 24.1022L14.8315 26.9126C14.2574 27.4867 14.2574 28.4235 14.8315 28.9977C15.1337 29.2997 15.4964 29.4207 15.8892 29.4207C16.2821 29.4207 16.6447 29.2696 16.9469 28.9977L19.7271 26.2175L22.5072 28.9977C23.0814 29.5718 24.0182 29.5718 24.5923 28.9977C25.1665 28.4235 25.1665 27.4867 24.5923 26.9126L21.7215 24.1323Z" fill="white"/>
</svg>
