<svg width="12" height="12" viewBox="0 0 12 12" fill="none" xmlns="http://www.w3.org/2000/svg">
<path fill-rule="evenodd" clip-rule="evenodd" d="M12 6C12 9.31371 9.31371 12 6 12C2.68629 12 0 9.31371 0 6C0 2.68629 2.68629 0 6 0C9.31371 0 12 2.68629 12 6ZM6 3.10714C5.23074 3.10714 4.60714 3.73076 4.60714 4.5V4.6089C4.60714 4.90476 4.36729 5.14461 4.07143 5.14461C3.77556 5.14461 3.53571 4.90476 3.53571 4.6089V4.5C3.53571 3.13901 4.63901 2.03571 6 2.03571H6.16562C7.43514 2.03571 8.46429 3.06486 8.46429 4.33438C8.46429 5.14536 8.03694 5.89633 7.33971 6.31056L6.96703 6.53196C6.69962 6.69086 6.53571 6.97888 6.53571 7.28994V7.37143C6.53571 7.66729 6.29586 7.90714 6 7.90714C5.70414 7.90714 5.46429 7.66729 5.46429 7.37143V7.28994C5.46429 6.60088 5.82739 5.9628 6.41979 5.61084L6.79245 5.38944C7.16471 5.16829 7.39286 4.76734 7.39286 4.33438C7.39286 3.65659 6.84341 3.10714 6.16562 3.10714H6ZM6.53571 8.91426C6.53571 8.6184 6.29586 8.37855 6 8.37855C5.70414 8.37855 5.46429 8.6184 5.46429 8.91426V9.25712C5.46429 9.55299 5.70414 9.79284 6 9.79284C6.29586 9.79284 6.53571 9.55299 6.53571 9.25712V8.91426Z" fill="white"/>
</svg>
