<svg width="567" height="264" viewBox="0 0 567 264" fill="none" xmlns="http://www.w3.org/2000/svg">
<path opacity="0.080334" fill-rule="evenodd" clip-rule="evenodd" d="M150.904 175.488L132.519 190.787L117.092 172.554L135.477 157.255L150.904 175.488ZM194.543 227.203L172.42 201.056L194.706 182.51L179.547 164.594L116.731 216.867L131.891 234.783L154.183 216.233L176.305 242.379L194.543 227.203Z" fill="#A0AFC3"/>
<path opacity="0.160334" fill-rule="evenodd" clip-rule="evenodd" d="M194.145 67.7428L183.571 70.7498L180.539 60.2633L191.113 57.2564L194.145 67.7428ZM202.331 97.5862L198.079 82.8782L210.697 79.2898L207.783 69.2115L172.216 79.3258L175.13 89.4041L187.752 85.8147L192.005 100.523L202.331 97.5862Z" fill="#A0AFC3"/>
<path opacity="0.240334" fill-rule="evenodd" clip-rule="evenodd" d="M454.312 42.3242L413.939 30.8431L425.516 -9.19626L465.889 2.28484L454.312 42.3242ZM421.634 156.784L438.317 99.0835L487.427 113.049L498.859 73.5112L360.437 34.1475L349.006 73.6854L398.129 87.6548L381.446 145.355L421.634 156.784Z" fill="#A0AFC3"/>
<path fill-rule="evenodd" clip-rule="evenodd" d="M271.727 193.11L302.091 199.983L287.635 171.778L167.851 160.652L271.727 193.11Z" fill="#BF3E00"/>
<path fill-rule="evenodd" clip-rule="evenodd" d="M302.091 199.986L250.508 196.807L263.151 190.434L302.091 199.986Z" fill="#802500"/>
<path fill-rule="evenodd" clip-rule="evenodd" d="M167.854 160.651L287.634 171.781L296.659 144.309L167.854 160.651Z" fill="#FF7D40"/>
<path fill-rule="evenodd" clip-rule="evenodd" d="M256.243 232.716L271.726 193.114L167.854 160.652L256.243 232.716Z" fill="#FF7D40"/>
<path fill-rule="evenodd" clip-rule="evenodd" d="M271.727 193.11L302.091 199.983L287.635 171.778L167.851 160.652L271.727 193.11Z" fill="#BF3E00"/>
<path fill-rule="evenodd" clip-rule="evenodd" d="M302.091 199.986L250.508 196.807L263.151 190.434L302.091 199.986Z" fill="#802500"/>
<path fill-rule="evenodd" clip-rule="evenodd" d="M167.854 160.651L287.634 171.781L296.659 144.309L167.854 160.651Z" fill="#FF7D40"/>
<path fill-rule="evenodd" clip-rule="evenodd" d="M256.243 232.716L271.726 193.114L167.854 160.652L256.243 232.716Z" fill="#FF7D40"/>
<path fill-rule="evenodd" clip-rule="evenodd" d="M338.536 120.368C337.995 127.701 340.22 135.726 344.491 141.826C344.934 142.46 345.029 143.222 344.819 143.902C344.666 144.4 344.349 144.859 343.886 145.176C342.784 145.932 341.269 145.661 340.508 144.576C335.55 137.485 333.065 128.539 333.696 120.016C333.804 118.695 334.959 117.693 336.294 117.792C337.633 117.889 338.635 119.044 338.536 120.368ZM362.491 94.8705C363.828 94.9603 364.835 96.1145 364.74 97.4375C364.728 97.6232 364.692 97.8053 364.638 97.9746C364.317 99.0255 363.298 99.751 362.152 99.6717C356.18 99.2538 351.002 100.695 346.748 103.951C345.256 105.099 343.93 106.458 342.82 107.986C342.033 109.063 340.518 109.311 339.433 108.53C338.348 107.753 338.096 106.243 338.884 105.171C340.27 103.271 341.918 101.576 343.783 100.143C348.93 96.1953 355.398 94.377 362.491 94.8705ZM325.979 227.274C327.3 227.478 328.208 228.709 327.998 230.021C327.979 230.14 327.954 230.248 327.921 230.358C327.574 231.485 326.435 232.216 325.225 232.028C321.43 231.437 317.66 230.578 314.015 229.473C309.597 228.137 305.304 226.427 301.263 224.381C300.065 223.783 299.579 222.338 300.201 221.151C300.808 219.962 302.267 219.491 303.458 220.098C307.254 222.007 311.283 223.619 315.433 224.871C318.86 225.91 322.407 226.716 325.979 227.274ZM354.189 151.742C359.509 155.857 366.126 159.498 375.001 163.199C376.158 163.68 376.739 164.949 376.382 166.118C376.377 166.134 376.371 166.15 376.366 166.166C376.345 166.228 376.323 166.29 376.298 166.348C375.775 167.574 374.355 168.15 373.119 167.635C363.839 163.765 356.872 159.922 351.202 155.54C350.147 154.722 349.962 153.208 350.778 152.159C351.603 151.111 353.129 150.925 354.189 151.742ZM392.74 110.148C394.219 111.719 395.646 113.399 396.98 115.147C397.464 115.786 397.583 116.588 397.363 117.301C397.221 117.77 396.935 118.199 396.507 118.514C395.442 119.319 393.918 119.11 393.109 118.049C391.88 116.438 390.56 114.88 389.195 113.432C385.311 109.306 380.525 105.816 375.349 103.346C374.143 102.769 373.637 101.328 374.218 100.132C374.798 98.9355 376.248 98.4343 377.454 99.0104C383.167 101.735 388.457 105.592 392.74 110.148ZM363.427 223.908C364.684 223.456 366.079 224.099 366.535 225.35C366.719 225.861 366.724 226.391 366.575 226.869C366.362 227.569 365.827 228.166 365.081 228.432C357.274 231.24 348.943 232.776 340.322 233.001C338.983 233.036 337.866 231.989 337.832 230.661C337.792 229.329 338.857 228.228 340.197 228.194C348.292 227.98 356.108 226.542 363.427 223.908ZM404.723 128.133C408.128 135.64 410.245 143.783 411.017 152.337C411.045 152.656 411.011 152.965 410.922 153.256C410.644 154.16 409.834 154.861 408.819 154.95C407.486 155.068 406.305 154.092 406.186 152.766C405.458 144.748 403.482 137.123 400.297 130.11C399.744 128.904 400.288 127.475 401.512 126.929C402.736 126.384 404.174 126.923 404.723 128.133ZM393.197 201.805C393.98 200.726 395.495 200.481 396.58 201.258C397.447 201.877 397.78 202.954 397.487 203.912C397.41 204.161 397.295 204.397 397.133 204.617C394.031 208.878 390.476 212.74 386.563 216.081C384.121 218.162 381.487 220.092 378.736 221.816C377.606 222.525 376.104 222.192 375.389 221.071C374.666 219.947 375.014 218.46 376.141 217.752C378.696 216.15 381.137 214.361 383.396 212.432C387.023 209.337 390.319 205.76 393.197 201.805ZM411.706 176.035C412.992 176.405 413.733 177.738 413.359 179.013C413.357 179.026 413.356 179.038 413.349 179.047C412.965 180.305 411.63 181.022 410.356 180.657C410.165 180.601 409.973 180.546 409.782 180.491C409.402 180.381 409.024 180.272 408.644 180.157C407.605 184.055 406.262 187.877 404.651 191.522C404.11 192.739 402.678 193.294 401.45 192.757C400.228 192.224 399.65 190.811 400.206 189.587C401.744 186.118 403.021 182.467 404.003 178.748C398.62 177.065 393.012 175.157 386.938 172.943C385.677 172.488 385.038 171.09 385.496 169.86C385.954 168.609 387.351 167.969 388.605 168.429C394.47 170.559 399.891 172.408 405.083 174.041C405.546 171.679 405.894 169.289 406.128 166.887C406.271 165.54 407.448 164.591 408.776 164.722C410.112 164.852 411.087 166.028 410.959 167.348C410.695 170.075 410.286 172.783 409.742 175.459C410.398 175.656 411.052 175.845 411.706 176.035ZM449.668 183.424C451.004 183.534 451.993 184.699 451.878 186.022C451.864 186.196 451.83 186.366 451.781 186.522C451.455 187.586 450.419 188.31 449.254 188.214C441.497 187.565 433.246 186.268 424.729 184.353C423.42 184.063 422.603 182.776 422.9 181.477C423.162 180.233 424.491 179.366 425.8 179.664C434.103 181.524 442.131 182.789 449.668 183.424ZM487.819 180.863C489.115 180.54 490.435 181.324 490.764 182.613C490.871 183.053 490.852 183.492 490.727 183.898C490.487 184.679 489.856 185.32 489 185.534L487.852 185.807C480.328 187.534 472.372 188.506 464.204 188.692C462.86 188.723 461.745 187.667 461.719 186.342C461.676 185.011 462.75 183.912 464.086 183.882C471.929 183.705 479.558 182.771 486.753 181.121L487.819 180.863ZM521.539 163.868C522.573 163.021 524.1 163.161 524.955 164.186C525.493 164.831 525.635 165.677 525.405 166.42C525.273 166.859 525.015 167.264 524.631 167.57C518.156 172.885 510.972 177.294 503.285 180.667C502.056 181.206 500.62 180.654 500.078 179.438C499.54 178.226 500.093 176.803 501.318 176.265C508.601 173.07 515.405 168.9 521.539 163.868ZM543.822 133.906C544.293 132.661 545.691 132.029 546.946 132.493C548.15 132.942 548.788 134.244 548.414 135.448C548.399 135.499 548.387 135.549 548.367 135.592C545.504 143.168 541.145 150.39 535.419 157.064C534.548 158.076 533.019 158.199 531.995 157.335C530.971 156.472 530.866 154.952 531.718 153.944C537.084 147.693 541.155 140.952 543.822 133.906ZM549.308 122.75C550.481 122.868 551.547 122.134 551.879 121.058C551.925 120.91 551.955 120.761 551.971 120.602C552.409 116.427 552.376 112.206 551.868 108.06C551.709 106.737 550.503 105.798 549.174 105.958C547.844 106.111 546.894 107.316 547.056 108.634C547.512 112.425 547.542 116.283 547.141 120.104C547.006 121.426 547.973 122.608 549.308 122.75Z" fill="#A0ABB5"/>
<path fill-rule="evenodd" clip-rule="evenodd" d="M34.2926 224.928L17.4884 229.505L104.863 245.543L57.4954 226.661L34.2926 224.928Z" fill="#95E0E9"/>
<path fill-rule="evenodd" clip-rule="evenodd" d="M19.1728 234.485L104.864 245.55L17.4893 229.512L19.1728 234.485Z" fill="#336F77"/>
<path fill-rule="evenodd" clip-rule="evenodd" d="M18.6812 249.064L23.7491 261.428L104.655 245.573L18.5527 248.902L18.6812 249.064Z" fill="#55A0AA"/>
<path fill-rule="evenodd" clip-rule="evenodd" d="M1.76223 243.341L27.4925 252.535L104.307 245.47L12.4325 232.358L1.76223 243.341Z" fill="#95E0E9"/>
</svg>
