<svg width="360" height="261" viewBox="0 0 360 261" fill="none" xmlns="http://www.w3.org/2000/svg">
<path opacity="0.080334" fill-rule="evenodd" clip-rule="evenodd" d="M334.37 180.741L351.081 194.647L365.102 178.075L348.392 164.169L334.37 180.741ZM294.706 227.744L314.814 203.979L294.558 187.123L308.336 170.838L365.43 218.349L351.651 234.634L331.39 217.773L311.282 241.538L294.706 227.744Z" fill="#A0AFC3"/>
<path opacity="0.160334" fill-rule="evenodd" clip-rule="evenodd" d="M295.067 82.8023L304.678 85.5354L307.434 76.0041L297.823 73.2711L295.067 82.8023ZM287.626 109.933L291.492 96.5648L280.023 93.3033L282.671 84.143L314.998 93.336L312.349 102.496L300.877 99.2338L297.012 112.602L287.626 109.933Z" fill="#A0AFC3"/>
<path opacity="0.240334" fill-rule="evenodd" clip-rule="evenodd" d="M58.5998 59.6975L95.2951 49.2623L84.7729 12.8702L48.0775 23.3055L58.5998 59.6975ZM88.3012 163.73L73.1377 111.286L28.5013 123.98L18.1108 88.0432L143.923 52.2652L154.314 88.2015L109.665 100.898L124.829 153.343L88.3012 163.73Z" fill="#A0AFC3"/>
<path fill-rule="evenodd" clip-rule="evenodd" d="M224.552 196.755L196.955 203.002L210.094 177.366L318.967 167.254L224.552 196.755Z" fill="#BF3E00"/>
<path fill-rule="evenodd" clip-rule="evenodd" d="M196.954 203.003L243.839 200.113L232.348 194.32L196.954 203.003Z" fill="#802500"/>
<path fill-rule="evenodd" clip-rule="evenodd" d="M318.964 167.26L210.094 177.377L201.891 152.406L318.964 167.26Z" fill="#FF7D40"/>
<path fill-rule="evenodd" clip-rule="evenodd" d="M238.626 232.753L224.553 196.758L318.964 167.254L238.626 232.753Z" fill="#FF7D40"/>
<path fill-rule="evenodd" clip-rule="evenodd" d="M224.552 196.755L196.955 203.002L210.094 177.366L318.967 167.254L224.552 196.755Z" fill="#BF3E00"/>
<path fill-rule="evenodd" clip-rule="evenodd" d="M196.954 203.003L243.839 200.113L232.348 194.32L196.954 203.003Z" fill="#802500"/>
<path fill-rule="evenodd" clip-rule="evenodd" d="M318.964 167.26L210.094 177.377L201.891 152.406L318.964 167.26Z" fill="#FF7D40"/>
<path fill-rule="evenodd" clip-rule="evenodd" d="M238.626 232.753L224.553 196.758L318.964 167.254L238.626 232.753Z" fill="#FF7D40"/>
<path fill-rule="evenodd" clip-rule="evenodd" d="M163.829 130.65C164.321 137.316 162.299 144.609 158.417 150.154C158.015 150.73 157.928 151.423 158.119 152.041C158.258 152.493 158.546 152.91 158.967 153.198C159.969 153.886 161.345 153.64 162.037 152.653C166.544 146.208 168.802 138.078 168.228 130.33C168.131 129.129 167.081 128.22 165.868 128.309C164.651 128.397 163.739 129.447 163.829 130.65ZM142.057 107.468C140.842 107.55 139.927 108.599 140.013 109.801C140.023 109.97 140.056 110.136 140.106 110.29C140.397 111.245 141.323 111.904 142.365 111.832C147.793 111.452 152.499 112.762 156.366 115.722C157.722 116.765 158.927 118 159.936 119.389C160.651 120.367 162.028 120.594 163.015 119.884C164.001 119.178 164.23 117.805 163.514 116.83C162.254 115.103 160.755 113.563 159.061 112.261C154.383 108.672 148.504 107.02 142.057 107.468ZM175.243 227.809C174.042 227.995 173.217 229.114 173.408 230.306C173.425 230.414 173.448 230.513 173.478 230.612C173.794 231.637 174.829 232.301 175.928 232.13C179.377 231.593 182.804 230.813 186.117 229.809C190.133 228.594 194.034 227.039 197.707 225.18C198.796 224.637 199.238 223.324 198.672 222.244C198.121 221.164 196.795 220.736 195.712 221.287C192.262 223.022 188.6 224.488 184.828 225.626C181.713 226.57 178.489 227.302 175.243 227.809ZM149.603 159.161C144.768 162.901 138.753 166.21 130.686 169.574C129.634 170.012 129.107 171.165 129.431 172.227C129.436 172.242 129.441 172.256 129.446 172.271C129.465 172.327 129.485 172.384 129.507 172.437C129.983 173.551 131.274 174.074 132.397 173.606C140.832 170.089 147.164 166.596 152.317 162.613C153.277 161.869 153.444 160.493 152.702 159.539C151.953 158.588 150.566 158.418 149.603 159.161ZM114.563 121.357C113.218 122.785 111.922 124.312 110.709 125.901C110.269 126.481 110.162 127.211 110.361 127.859C110.491 128.285 110.751 128.675 111.139 128.961C112.107 129.693 113.492 129.503 114.228 128.539C115.345 127.075 116.545 125.658 117.785 124.343C121.315 120.592 125.665 117.42 130.37 115.175C131.466 114.651 131.926 113.341 131.398 112.253C130.87 111.166 129.553 110.711 128.457 111.234C123.264 113.71 118.456 117.216 114.563 121.357ZM141.206 224.752C140.064 224.342 138.796 224.926 138.381 226.063C138.214 226.527 138.209 227.009 138.344 227.443C138.539 228.08 139.024 228.622 139.703 228.864C146.799 231.416 154.371 232.813 162.206 233.017C163.423 233.049 164.438 232.097 164.47 230.89C164.506 229.68 163.538 228.679 162.32 228.647C154.963 228.454 147.858 227.146 141.206 224.752ZM103.672 137.708C100.577 144.531 98.6529 151.932 97.9516 159.707C97.9257 159.997 97.9563 160.278 98.0373 160.543C98.2904 161.364 99.0266 162.001 99.9494 162.082C101.161 162.189 102.234 161.302 102.342 160.097C103.004 152.809 104.8 145.879 107.694 139.505C108.197 138.409 107.703 137.11 106.59 136.614C105.477 136.118 104.171 136.608 103.672 137.708ZM114.148 204.66C113.437 203.679 112.059 203.456 111.073 204.162C110.285 204.725 109.983 205.704 110.249 206.574C110.319 206.801 110.423 207.015 110.571 207.215C113.39 211.089 116.621 214.598 120.178 217.635C122.397 219.526 124.791 221.281 127.291 222.848C128.319 223.492 129.684 223.19 130.333 222.171C130.991 221.149 130.675 219.797 129.651 219.154C127.328 217.698 125.109 216.072 123.056 214.319C119.759 211.505 116.764 208.255 114.148 204.66ZM97.325 181.236C96.1558 181.573 95.4828 182.784 95.8222 183.943C95.8238 183.955 95.8255 183.966 95.8313 183.974C96.1809 185.117 97.3942 185.769 98.5515 185.437C98.7258 185.386 98.8997 185.336 99.0732 185.286C99.4185 185.187 99.7627 185.087 100.108 184.983C101.052 188.525 102.273 191.999 103.737 195.313C104.229 196.419 105.531 196.923 106.646 196.435C107.758 195.95 108.283 194.666 107.777 193.554C106.379 190.401 105.219 187.083 104.326 183.702C109.219 182.172 114.316 180.438 119.836 178.426C120.983 178.013 121.564 176.742 121.147 175.623C120.731 174.487 119.461 173.905 118.321 174.323C112.99 176.259 108.064 177.94 103.344 179.424C102.924 177.277 102.607 175.105 102.395 172.921C102.265 171.697 101.195 170.834 99.9879 170.954C98.7734 171.072 97.8877 172.141 98.0038 173.341C98.2441 175.819 98.6156 178.281 99.1095 180.713C98.5142 180.892 97.9201 181.064 97.3259 181.236L97.325 181.236ZM62.8214 187.962C61.6064 188.062 60.7078 189.122 60.8126 190.324C60.8247 190.482 60.8559 190.636 60.9002 190.778C61.1969 191.745 62.1379 192.404 63.1969 192.316C70.2472 191.727 77.7466 190.547 85.4884 188.807C86.6776 188.543 87.4202 187.373 87.1504 186.193C86.9121 185.062 85.7049 184.274 84.5144 184.545C76.9682 186.235 69.6718 187.385 62.8214 187.962ZM28.1453 185.625C26.9672 185.332 25.7678 186.045 25.468 187.216C25.3712 187.617 25.3881 188.015 25.502 188.384C25.72 189.094 26.2936 189.677 27.0719 189.871L28.1152 190.119C34.9537 191.689 42.1851 192.572 49.6094 192.741C50.8309 192.77 51.8436 191.81 51.8674 190.605C51.9067 189.396 50.931 188.397 49.7166 188.37C42.5874 188.209 35.6538 187.36 29.1141 185.86L28.1453 185.625ZM-2.5035 170.186C-3.4429 169.415 -4.83125 169.543 -5.60832 170.474C-6.09701 171.06 -6.22639 171.829 -6.017 172.505C-5.89748 172.904 -5.66266 173.271 -5.31319 173.55C0.572016 178.381 7.10166 182.388 14.0878 185.454C15.2053 185.944 16.51 185.442 17.003 184.337C17.4918 183.235 16.9895 181.942 15.8756 181.453C9.25605 178.549 3.07232 174.759 -2.5035 170.186ZM-22.756 142.951C-23.1846 141.82 -24.4554 141.245 -25.5958 141.667C-26.6898 142.075 -27.2701 143.258 -26.9301 144.353C-26.9163 144.399 -26.906 144.444 -26.8875 144.484C-24.2856 151.369 -20.3233 157.933 -15.119 164C-14.3269 164.919 -12.9372 165.031 -12.0068 164.246C-11.0764 163.461 -10.9809 162.08 -11.7553 161.164C-16.6324 155.482 -20.3322 149.355 -22.756 142.951ZM-27.7422 132.804C-28.8084 132.911 -29.7773 132.244 -30.0792 131.266C-30.1212 131.131 -30.1484 130.996 -30.163 130.852C-30.5611 127.057 -30.5307 123.22 -30.0694 119.452C-29.9252 118.25 -28.8288 117.396 -27.6209 117.542C-26.4117 117.681 -25.5483 118.776 -25.6954 119.974C-26.1103 123.419 -26.137 126.926 -25.7733 130.399C-25.6501 131.601 -26.5293 132.674 -27.7422 132.804Z" fill="#A0ABB5"/>
</svg>
