<svg width="24" height="18" viewBox="0 0 24 18" fill="none" xmlns="http://www.w3.org/2000/svg">
<path d="M20.944 9.979C20.455 14.488 16.638 18 12 18C10.7185 18 9.4519 17.7256 8.28535 17.1952C7.1188 16.6648 6.07937 15.8907 5.237 14.925L6.482 13.292C7.13434 14.1343 7.97071 14.8162 8.92712 15.2856C9.88353 15.7549 10.9346 15.9993 12 16C15.526 16 18.444 13.376 18.923 9.979H16L20 4.729L24 9.979H20.944ZM5.08 8C5.567 4.613 8.48 2 12 2C13.0632 2.00064 14.1122 2.24402 15.0671 2.71158C16.022 3.17914 16.8575 3.85855 17.51 4.698L18.754 3.066C17.912 2.10287 16.8737 1.331 15.7088 0.802191C14.5439 0.273381 13.2793 -0.000135437 12 5.03107e-08C7.368 5.03107e-08 3.557 3.501 3.059 8H0L4 13.25L8 8H5.08Z" fill="#78CCD0"/>
</svg>
