<svg width="18" height="16" viewBox="0 0 18 16" fill="none" xmlns="http://www.w3.org/2000/svg">
<path d="M1.23743 6.93957C6.06926 4.79023 9.29119 3.37321 10.9034 2.68852C15.5063 0.733783 16.4627 0.394207 17.0862 0.382922C17.2232 0.380568 17.5298 0.415253 17.7284 0.579745C17.8961 0.718691 17.9422 0.906376 17.9643 1.03805C17.9864 1.1698 18.0139 1.46985 17.992 1.70426C17.7425 4.38017 16.6633 10.874 16.1142 13.871C15.8818 15.1392 15.4244 15.5644 14.9815 15.606C14.019 15.6964 13.288 14.9566 12.3558 14.3326C10.897 13.3563 10.0729 12.7484 8.6569 11.7958C7.02049 10.6947 8.08131 10.0896 9.01392 9.10054C9.25796 8.84175 13.4988 4.90321 13.5809 4.54598C13.5912 4.50126 13.6007 4.33469 13.5038 4.24676C13.4069 4.15884 13.2639 4.18889 13.1606 4.21277C13.0144 4.24669 10.6839 5.81941 6.16937 8.93092C5.50787 9.3947 4.90874 9.6206 4.37193 9.60876C3.78014 9.59575 2.64178 9.26718 1.7955 8.98631C0.757523 8.64174 -0.0674736 8.45967 0.00436025 7.8746C0.0417795 7.56984 0.452789 7.25817 1.23743 6.93957Z" fill="white"/>
</svg>
