<svg width="24" height="24" viewBox="0 0 24 24" fill="none" xmlns="http://www.w3.org/2000/svg">
<path fill-rule="evenodd" clip-rule="evenodd" d="M7.99504 5.24883L9.59127 3.24721C9.73359 3.06877 9.94941 2.96484 10.1776 2.96484H13.8223C14.0505 2.96484 14.2664 3.06877 14.4086 3.24724L16.0049 5.24883H19.5C19.9142 5.24883 20.25 5.58461 20.25 5.99883C20.25 6.41304 19.9142 6.74883 19.5 6.74883H18.8251L17.5088 19.3853C17.4133 20.3023 16.6404 20.9988 15.7185 20.9988H8.2815C7.35958 20.9988 6.58671 20.3023 6.49118 19.3853L5.17488 6.74883H4.5C4.08579 6.74883 3.75 6.41304 3.75 5.99883C3.75 5.58461 4.08579 5.24883 4.5 5.24883H7.99504ZM14.086 5.24848L13.4611 4.46485H10.5388L9.91391 5.24848H14.086Z" fill="#A0ABB5"/>
</svg>
