<svg width="40" height="40" viewBox="0 0 40 40" fill="none" xmlns="http://www.w3.org/2000/svg">
<path d="M3.33264 19.332C3.33264 11.7895 3.33264 8.01832 5.67579 5.67518C8.01893 3.33203 11.7901 3.33203 19.3326 3.33203H20.666C28.2085 3.33203 31.9797 3.33203 34.3229 5.67518C36.666 8.01832 36.666 11.7895 36.666 19.332V20.6654C36.666 28.2079 36.666 31.979 34.3229 34.3222C31.9797 36.6654 28.2085 36.6654 20.666 36.6654H19.3326C11.7901 36.6654 8.01893 36.6654 5.67579 34.3222C3.33264 31.979 3.33264 28.2079 3.33264 20.6654V19.332Z" fill="#58646A"/>
<path d="M21.0687 27.3516C13.4715 27.3516 9.1382 22.1432 8.95764 13.4766H12.7632C12.8882 19.8377 15.6937 22.5321 17.9159 23.0877V13.4766H21.4994V18.9627C23.6938 18.7266 25.9991 16.2266 26.7769 13.4766H30.3603C29.7631 16.8655 27.2631 19.3655 25.4853 20.3932C27.2631 21.2266 30.1104 23.4071 31.1937 27.3516H27.2492C26.4019 24.7127 24.291 22.671 21.4994 22.3932V27.3516H21.0687Z" fill="white"/>
</svg>
